<svg xmlns="http://www.w3.org/2000/svg" xmlns:xlink="http://www.w3.org/1999/xlink" width="58" height="58" viewBox="0 0 58 58">
  <defs>
    <filter id="Path_41316" x="0" y="0" width="58" height="58" filterUnits="userSpaceOnUse">
      <feOffset dy="3" input="SourceAlpha"/>
      <feGaussianBlur stdDeviation="3" result="blur"/>
      <feFlood flood-opacity="0.161"/>
      <feComposite operator="in" in2="blur"/>
      <feComposite in="SourceGraphic"/>
    </filter>
  </defs>
  <g id="bar-menu" transform="translate(-304 -21)">
    <g transform="matrix(1, 0, 0, 1, 304, 21)" filter="url(#Path_41316)">
      <path id="Path_41316-2" data-name="Path 41316" d="M20,0A20,20,0,1,1,0,20,20,20,0,0,1,20,0Z" transform="translate(9 6)" fill="#894df8"/>
    </g>
    <g id="Group_4" data-name="Group 4" transform="translate(100.531 -73.978)">
      <path id="Path_6" data-name="Path 6" d="M232.737,195.019c-2.506,0-5.011,0-7.517-.005a.826.826,0,0,1-.549-.132.8.8,0,0,1-.192-.614c.037-.166.273-.308.448-.416.091-.056.241-.018.364-.018h14.886a2.008,2.008,0,0,1,.369.011.591.591,0,0,1,0,1.162,2.037,2.037,0,0,1-.369.012Z" transform="translate(0 -73.924)" fill="#fff"/>
      <path id="Path_7" data-name="Path 7" d="M261.988,115.165h-5.072a2.007,2.007,0,0,1-.369-.011.592.592,0,0,1,0-1.163,1.535,1.535,0,0,1,.3-.011h10.291c.074,0,.148,0,.222,0a.566.566,0,0,1,.561.606.554.554,0,0,1-.558.57c-.271.016-.543.006-.814.006Z" transform="translate(-29.251 0)" fill="#fff"/>
      <path id="Path_8" data-name="Path 8" d="M261.992,275.155H256.92a2.049,2.049,0,0,1-.369-.011.592.592,0,0,1-.009-1.164,1.282,1.282,0,0,1,.258-.011h10.365c.062,0,.124,0,.185,0a.59.59,0,0,1,.009,1.178c-.11.01-.222,0-.333,0Z" transform="translate(-29.251 -148.13)" fill="#fff"/>
    </g>
  </g>
</svg>
