<svg xmlns="http://www.w3.org/2000/svg" width="23" height="23" viewBox="0 0 23 23">
  <g id="categoriees" transform="translate(-15 -75)">
    <circle id="Ellipse_79" data-name="Ellipse 79" cx="11.5" cy="11.5" r="11.5" transform="translate(15 75)" fill="#894df8"/>
    <g id="Group_40987" data-name="Group 40987" transform="translate(57 102.218)">
      <path id="Path_41291" data-name="Path 41291" d="M105.936-17.405c.023.082.044.164.069.245a1.323,1.323,0,0,0,1.255.933q.674,0,1.349,0a1.326,1.326,0,0,0,1.311-1.31c0-.438,0-.876,0-1.314a1.314,1.314,0,0,0-1.253-1.349,10.915,10.915,0,0,0-1.6.026,1.253,1.253,0,0,0-1.1,1.082.246.246,0,0,1-.029.059Z" transform="translate(-140.936 0)" fill="#fff"/>
      <path id="Path_41292" data-name="Path 41292" d="M-31.014-18.757a1.565,1.565,0,0,0-.412-.8,1.2,1.2,0,0,0-.8-.367,14.349,14.349,0,0,0-1.675.026A1.279,1.279,0,0,0-35-18.637q-.006.7,0,1.4a1.331,1.331,0,0,0,1.289,1.283c.456,0,.912,0,1.368,0a1.319,1.319,0,0,0,1.3-1.1.416.416,0,0,1,.03-.078Z" transform="translate(4.88 -0.276)" fill="#fff"/>
      <path id="Path_41293" data-name="Path 41293" d="M105.889,123.665a1.593,1.593,0,0,0,.4.785,1.223,1.223,0,0,0,.83.38,14.6,14.6,0,0,0,1.675-.029,1.278,1.278,0,0,0,1.078-1.237c.006-.473,0-.946,0-1.42a1.328,1.328,0,0,0-1.27-1.283q-.718-.012-1.437,0a1.332,1.332,0,0,0-1.242,1.064,1.071,1.071,0,0,1-.033.112Z" transform="translate(-140.889 -136.187)" fill="#fff"/>
      <path id="Path_41294" data-name="Path 41294" d="M-31.016,122.1a3.365,3.365,0,0,0-.21-.539,1.265,1.265,0,0,0-1.135-.637c-.433-.006-.865,0-1.3,0A1.33,1.33,0,0,0-35,122.254c0,.415,0,.831,0,1.246a1.3,1.3,0,0,0,1.216,1.382,9.222,9.222,0,0,0,1.64-.019,1.252,1.252,0,0,0,1.1-1.082.251.251,0,0,1,.029-.06Z" transform="translate(4.882 -136.245)" fill="#fff"/>
    </g>
  </g>
</svg>
