<svg xmlns="http://www.w3.org/2000/svg" width="23" height="23" viewBox="0 0 23 23">
  <g id="change-password" transform="translate(-15 -116)">
    <path id="Path_41317" data-name="Path 41317" d="M11.5,0A11.5,11.5,0,1,1,0,11.5,11.5,11.5,0,0,1,11.5,0Z" transform="translate(15 116)" fill="#894df8"/>
    <g id="Group_40998" data-name="Group 40998" transform="translate(-485.18 -104.325)">
      <path id="Path_41303" data-name="Path 41303" d="M507.582,233.939c-.085-.211-.159-.418-.254-.616a.247.247,0,0,0-.178-.111A1.06,1.06,0,0,1,506.007,232a4.192,4.192,0,0,1,.03-.706.975.975,0,0,1,1.018-.856c.187,0,.277-.054.327-.235a3.4,3.4,0,0,1,.178-.437,5.781,5.781,0,0,1-.4-.734.873.873,0,0,1,.212-.9,7.172,7.172,0,0,1,.609-.612,1,1,0,0,1,1.415.054.307.307,0,0,0,.393.067c.33-.119.533-.247.543-.673a.819.819,0,0,1,.746-.768,4.23,4.23,0,0,1,1.142-.012.939.939,0,0,1,.838.981c0,.218.089.284.271.371a.607.607,0,0,0,.8-.085.938.938,0,0,1,1.272.081c.168.155.327.321.488.484a1.032,1.032,0,0,1,0,1.565l-.111.118c.084.211.159.425.256.628a.25.25,0,0,0,.186.1,1.058,1.058,0,0,1,1.134,1.2c0,.17,0,.34,0,.51a1.024,1.024,0,0,1-1.059,1.063.294.294,0,0,0-.314.223c-.135.309-.226.548.074.861a.921.921,0,0,1-.085,1.251c-.16.174-.33.338-.5.5a1.027,1.027,0,0,1-1.533.008c-.042-.041-.077-.089-.117-.136-.234.092-.454.17-.664.268a.235.235,0,0,0-.086.175,1.057,1.057,0,0,1-1.193,1.138,4.3,4.3,0,0,1-.706-.026.981.981,0,0,1-.872-1.028c0-.176-.047-.265-.219-.315a4.419,4.419,0,0,1-.473-.191,3.889,3.889,0,0,1-.632.393.95.95,0,0,1-1.023-.228c-.174-.159-.338-.33-.5-.5a1.027,1.027,0,0,1,0-1.518Zm8.032-5.111a.867.867,0,0,0-.1-.25,6.646,6.646,0,0,0-.6-.592.348.348,0,0,0-.484.036c-.109.1-.211.207-.314.312a.37.37,0,0,1-.462.074c-.322-.142-.649-.272-.976-.4a.338.338,0,0,1-.253-.346c0-.14,0-.281,0-.421a.391.391,0,0,0-.427-.425q-.321,0-.643,0a.391.391,0,0,0-.427.425c0,.14,0,.281,0,.421a.339.339,0,0,1-.253.346c-.327.131-.654.26-.976.4a.37.37,0,0,1-.462-.074c-.1-.106-.2-.213-.314-.312a.372.372,0,0,0-.521-.011c-.186.169-.364.347-.533.532a.373.373,0,0,0,.019.537c.1.108.208.209.312.314a.363.363,0,0,1,.065.445c-.141.322-.273.649-.4.976a.347.347,0,0,1-.365.259c-.14-.006-.281-.006-.421,0a.387.387,0,0,0-.408.421c0,.222,0,.443,0,.665a.385.385,0,0,0,.4.41c.147.008.3.006.443,0a.347.347,0,0,1,.357.268c.125.321.255.641.4.955a.371.371,0,0,1-.067.463c-.1.1-.213.205-.312.314a.376.376,0,0,0-.005.538c.165.179.337.352.517.517a.373.373,0,0,0,.538-.011c.1-.094.2-.2.3-.3a.376.376,0,0,1,.48-.078c.314.142.635.269.956.395a.347.347,0,0,1,.264.361c-.005.147-.007.3,0,.443a.385.385,0,0,0,.414.392q.332,0,.665,0a.385.385,0,0,0,.415-.391c.009-.155.005-.31,0-.465a.33.33,0,0,1,.242-.331c.333-.136.667-.268,1-.411a.363.363,0,0,1,.444.07c.1.1.205.213.314.312a.374.374,0,0,0,.538.012c.18-.164.353-.337.517-.516a.377.377,0,0,0,0-.538c-.1-.109-.207-.211-.312-.314a.37.37,0,0,1-.068-.463c.141-.315.271-.634.4-.956a.347.347,0,0,1,.357-.269c.147,0,.3.007.443,0a.386.386,0,0,0,.4-.41c0-.222,0-.443,0-.665a.387.387,0,0,0-.408-.421c-.14-.006-.281-.006-.421,0a.344.344,0,0,1-.369-.28,6.147,6.147,0,0,0-.225-.621c-.265-.594-.267-.59.172-1.061A1.749,1.749,0,0,0,515.614,228.828Z" transform="translate(0 0)" fill="#fff"/>
      <path id="Path_41304" data-name="Path 41304" d="M583.472,301.021a2.457,2.457,0,1,1-2.45-2.464A2.448,2.448,0,0,1,583.472,301.021Zm-.642-.005a1.815,1.815,0,1,0-1.821,1.813A1.829,1.829,0,0,0,582.83,301.016Z" transform="translate(-69.337 -69.193)" fill="#fff"/>
    </g>
  </g>
</svg>
