<svg xmlns="http://www.w3.org/2000/svg" width="18" height="18" viewBox="0 0 18 18">
  <g id="delete" transform="translate(-341 -68)">
    <rect id="Rectangle_7128" data-name="Rectangle 7128" width="18" height="18" transform="translate(341 68)" fill="#fff" opacity="0"/>
    <g id="Group_40964" data-name="Group 40964" transform="translate(113.136 -2.878)">
      <path id="Path_13" data-name="Path 13" d="M232.667,77.542a4.148,4.148,0,0,1-.6-.529.97.97,0,0,1-.073-1.082,1.05,1.05,0,0,1,.969-.587c.39-.011.781,0,1.171,0,.076,0,.152-.006.26-.011,0-.146-.006-.277,0-.407a1.06,1.06,0,0,1,1.019-1.028q1.322-.032,2.646,0a1.069,1.069,0,0,1,1.029,1.07c0,.115,0,.231,0,.377.473,0,.922,0,1.372,0a1.087,1.087,0,0,1,.948.462A1.051,1.051,0,0,1,241,77.371a.286.286,0,0,0-.192.313q.007,3.3,0,6.6a1.575,1.575,0,0,1-.473,1.2,1.292,1.292,0,0,1-.906.38c-1.8.005-3.591.011-5.387,0a1.431,1.431,0,0,1-1.38-1.507c-.007-1.632,0-3.263,0-4.895C232.667,78.806,232.667,78.142,232.667,77.542Zm.562-.048v.278q0,2.377,0,4.755c0,.625-.006,1.249,0,1.874a.876.876,0,0,0,.892.913q2.623.005,5.247,0a.837.837,0,0,0,.836-.652,1.506,1.506,0,0,0,.046-.369q0-3.291,0-6.582c0-.068-.007-.136-.012-.216Zm3.538-1.593q-1.872,0-3.744,0a.52.52,0,0,0-.587.5c-.007.309.226.515.591.522h7.442a.538.538,0,0,0,.485-.229.475.475,0,0,0,.035-.509.533.533,0,0,0-.523-.284Zm-1.818-.574h3.581c0-.129.005-.244,0-.359a.513.513,0,0,0-.52-.52q-1.273-.012-2.547,0a.51.51,0,0,0-.511.5C234.942,75.069,234.949,75.186,234.949,75.327Z"/>
      <path id="Path_14" data-name="Path 14" d="M329.846,170.206q0-1.241,0-2.482c0-.078-.022-.174.015-.229.058-.088.157-.205.239-.205a.469.469,0,0,1,.281.182c.041.047.025.149.025.226q0,2.505,0,5.011c0,.039,0,.078,0,.117-.014.18-.1.3-.29.3a.266.266,0,0,1-.267-.295c0-.2,0-.39,0-.585Q329.845,171.224,329.846,170.206Z" transform="translate(-93.385 -89.035)"/>
      <path id="Path_15" data-name="Path 15" d="M365.767,169.873q0,1.229,0,2.457c0,.078.022.173-.014.23a.451.451,0,0,1-.238.21c-.077.013-.2-.073-.257-.147a.415.415,0,0,1-.047-.246q0-2.516,0-5.032a.906.906,0,0,1,.024-.207c.036-.153.151-.244.291-.2a.557.557,0,0,1,.234.243c.032.051.009.137.009.207Q365.768,168.632,365.767,169.873Z" transform="translate(-127.097 -88.692)"/>
      <path id="Path_16" data-name="Path 16" d="M294.695,170.211q0-1.229,0-2.459c0-.078-.025-.175.012-.23.061-.091.157-.2.25-.215.078-.01.2.1.251.179a.54.54,0,0,1,.031.274q0,2.459,0,4.918a1.475,1.475,0,0,1-.014.21.265.265,0,1,1-.53-.031c0-.273,0-.546,0-.82Q294.694,171.124,294.695,170.211Z" transform="translate(-59.879 -89.051)"/>
    </g>
  </g>
</svg>
