<svg xmlns="http://www.w3.org/2000/svg" xmlns:xlink="http://www.w3.org/1999/xlink" width="52" height="52" viewBox="0 0 52 52">
  <defs>
    <filter id="Path_41321" x="0" y="0" width="52" height="52" filterUnits="userSpaceOnUse">
      <feOffset dy="3" input="SourceAlpha"/>
      <feGaussianBlur stdDeviation="3" result="blur"/>
      <feFlood flood-opacity="0.161"/>
      <feComposite operator="in" in2="blur"/>
      <feComposite in="SourceGraphic"/>
    </filter>
  </defs>
  <g id="edit-icon" transform="translate(-317 -10)">
    <g transform="matrix(1, 0, 0, 1, 317, 10)" filter="url(#Path_41321)">
      <path id="Path_41321-2" data-name="Path 41321" d="M17,0A17,17,0,1,1,0,17,17,17,0,0,1,17,0Z" transform="translate(9 6)" fill="#894df8"/>
    </g>
    <g id="Group_40991" data-name="Group 40991" transform="translate(371.013 47)">
      <path id="Path_41298" data-name="Path 41298" d="M31.262-18.863a2.85,2.85,0,0,1-.949,1.522c-2.023,2.006-4.031,4.027-6.052,6.035a1.564,1.564,0,0,1-.567.352c-.918.322-1.843.623-2.769.924a.469.469,0,0,1-.647-.317.65.65,0,0,1,.024-.343c.312-.96.627-1.919.954-2.874a1.053,1.053,0,0,1,.254-.38q3.2-3.211,6.407-6.416A2.4,2.4,0,0,1,29.125-21h.438a6.12,6.12,0,0,1,.886.375,1.932,1.932,0,0,1,.813,1.323Zm-9.743,7.6c.617-.205,1.161-.376,1.7-.57a1.271,1.271,0,0,0,.454-.279q3.1-3.081,6.179-6.173a2.736,2.736,0,0,0,.223-.241.891.891,0,0,0-.066-1.2.918.918,0,0,0-1.4.07q-3.149,3.144-6.293,6.292a.573.573,0,0,0-.15.19C21.953-12.558,21.75-11.947,21.519-11.259Z" transform="translate(-52.248)" fill="#fff"/>
      <path id="Path_41299" data-name="Path 41299" d="M-35.013,3.935q0-2.41,0-4.821A1.52,1.52,0,0,1-33.35-2.553q2.835-.005,5.67,0a1.479,1.479,0,0,1,.3.024.455.455,0,0,1,.367.5.448.448,0,0,1-.409.438,2.379,2.379,0,0,1-.328.01h-5.533c-.579,0-.74.158-.74.726q0,4.807,0,9.614c0,.55.163.711.722.711h8.628c.526,0,.684-.157.684-.685q0-2.3,0-4.6a1.6,1.6,0,0,1,.023-.326.5.5,0,0,1,.508-.406.491.491,0,0,1,.448.5c.007.411,0,.822,0,1.232,0,1.233-.023,2.466.009,3.7a1.535,1.535,0,0,1-1.589,1.579q-4.41,0-8.819,0a1.524,1.524,0,0,1-1.605-1.623Q-35.016,6.386-35.013,3.935Z" transform="translate(0 -17.434)" fill="#fff"/>
    </g>
  </g>
</svg>
