<svg xmlns="http://www.w3.org/2000/svg" width="23" height="23" viewBox="0 0 23 23">
  <g id="home-icon" transform="translate(-15 -36)">
    <circle id="Ellipse_80" data-name="Ellipse 80" cx="11.5" cy="11.5" r="11.5" transform="translate(15 36)" fill="#894df8"/>
    <g id="Group_40971" data-name="Group 40971" transform="translate(-187.737 -127)">
      <path id="Path_41282" data-name="Path 41282" d="M220.373,175.063a1.151,1.151,0,0,1-1.231.826v.261c0,1.041-.013,2.082,0,3.122a1.293,1.293,0,0,1-1.365,1.365c-.545-.028-1.094,0-1.641-.006-.35,0-.455-.107-.456-.465,0-.828,0-1.656,0-2.484,0-.5-.2-.7-.7-.7-.3,0-.608,0-.912,0a.572.572,0,0,0-.635.633c0,.843,0,1.687,0,2.53,0,.4-.1.491-.5.491-.562,0-1.124,0-1.686,0a1.242,1.242,0,0,1-1.269-1.288c0-1.064,0-2.127,0-3.191V175.9c-.13-.013-.243-.016-.352-.038a1.012,1.012,0,0,1-.84-.739,1.035,1.035,0,0,1,.281-1.085q2.353-2.353,4.71-4.7a2.849,2.849,0,0,1,.531-.335h.547a8.656,8.656,0,0,1,.753.6q2.152,2.132,4.283,4.285a4.976,4.976,0,0,1,.48.676Zm-7.613,4.912c0-.112,0-.194,0-.277,0-.714,0-1.428,0-2.142a1.206,1.206,0,0,1,1.068-1.218,7.728,7.728,0,0,1,1.364-.016,1.229,1.229,0,0,1,1.168,1.317q0,1.037,0,2.074v.231c.041.018.054.029.068.029q.615,0,1.23.006c.622,0,.8-.178.8-.792q0-1.641,0-3.282c0-.659.04-.7.689-.7.068,0,.137,0,.205,0a.387.387,0,0,0,.294-.605,1.167,1.167,0,0,0-.153-.168l-4.545-4.545c-.311-.311-.472-.312-.779-.005l-4.545,4.545c-.043.043-.11.08-.123.131a.772.772,0,0,0-.053.416c.042.1.2.182.328.225a1.181,1.181,0,0,0,.362.01c.406,0,.515.107.515.51,0,1.216,0,2.431,0,3.647a.553.553,0,0,0,.543.609C211.709,179.991,212.218,179.975,212.76,179.975Z" fill="#fff"/>
    </g>
  </g>
</svg>
