<svg xmlns="http://www.w3.org/2000/svg" width="23" height="23" viewBox="0 0 23 23">
  <g id="logout" transform="translate(-15 -116)">
    <circle id="Ellipse_78" data-name="Ellipse 78" cx="11.5" cy="11.5" r="11.5" transform="translate(15 116)" fill="#894df8"/>
    <g id="Group_40990" data-name="Group 40990" transform="translate(56.195 143.201)">
      <path id="Path_41296" data-name="Path 41296" d="M-35-1.066c.069-.356.112-.719.212-1.067a5.208,5.208,0,0,1,2.327-3.076.62.62,0,0,1,.92.158.654.654,0,0,1-.267.9A3.967,3.967,0,0,0-33.744-.614a4.054,4.054,0,0,0,3.471,3.935A4.05,4.05,0,0,0-25.688-.12,3.984,3.984,0,0,0-27.56-4.143a.915.915,0,0,1-.342-.412.555.555,0,0,1,.206-.663.6.6,0,0,1,.716-.025,5.262,5.262,0,0,1,2.465,3.45c.054.24.084.485.125.727V-.32c-.03.2-.054.393-.091.587a5.265,5.265,0,0,1-6.036,4.261A5.108,5.108,0,0,1-34.75.865,9.958,9.958,0,0,1-35-.32Z" transform="translate(0 -15.002)" fill="#fff"/>
      <path id="Path_41297" data-name="Path 41297" d="M79.464-21a.745.745,0,0,1,.482.81c-.013,1.167,0,2.334-.007,3.5a1.222,1.222,0,0,1-.049.386.569.569,0,0,1-.665.362.53.53,0,0,1-.469-.5q-.016-2.018,0-4.037c0-.287.235-.409.459-.522Z" transform="translate(-109.035)" fill="#fff"/>
    </g>
  </g>
</svg>
