<svg xmlns="http://www.w3.org/2000/svg" width="23" height="23" viewBox="0 0 23 23">
  <g id="my-membership" transform="translate(-15 -116)">
    <circle id="Ellipse_78" data-name="Ellipse 78" cx="11.5" cy="11.5" r="11.5" transform="translate(15 116)" fill="#894df8"/>
    <g id="Group_40986" data-name="Group 40986" transform="translate(32.926 140.854)">
      <path id="Path_41287" data-name="Path 41287" d="M.879-20h.78c.254.044.511.076.761.134a5.44,5.44,0,0,1,4.205,6.117A5.447,5.447,0,0,1,.479-9.143a5.431,5.431,0,0,1-4.558-6.182A5.244,5.244,0,0,1-.516-19.67,10.675,10.675,0,0,1,.879-20Zm-1.5,7.4c0,.411.294.614.623.455.375-.181.735-.39,1.111-.568a.428.428,0,0,1,.323,0c.343.16.677.341,1.01.523a.474.474,0,0,0,.546.019.494.494,0,0,0,.157-.552c-.066-.363-.143-.725-.191-1.091a.436.436,0,0,1,.1-.313c.265-.285.546-.555.83-.821.157-.148.262-.335.15-.515a.755.755,0,0,0-.428-.289,5.6,5.6,0,0,0-.932-.129.584.584,0,0,1-.568-.414,4.694,4.694,0,0,0-.43-.867.73.73,0,0,0-.4-.275c-.2-.055-.341.089-.43.273-.169.349-.335.7-.522,1.041a.418.418,0,0,1-.253.188c-.372.072-.748.118-1.123.172-.2.029-.387.083-.46.3a.467.467,0,0,0,.166.52c.27.254.523.526.8.774a.39.39,0,0,1,.126.417C-.5-13.353-.562-12.951-.623-12.6Z" transform="translate(-7.716)" fill="#fff"/>
      <path id="Path_41288" data-name="Path 41288" d="M-8.953,157.987a2.707,2.707,0,0,1-.4-.49c-.235-.48-.433-.978-.66-1.5-.351.117-.7.231-1.04.347a4.588,4.588,0,0,1-.708.231.6.6,0,0,1-.469-.109.538.538,0,0,1-.05-.472c.36-.859.748-1.706,1.148-2.605A6.416,6.416,0,0,0-7.49,155.4c-.036.093-.064.175-.1.254-.285.641-.563,1.286-.863,1.92a2.248,2.248,0,0,1-.335.417Z" transform="translate(0 -163.726)" fill="#fff"/>
      <path id="Path_41289" data-name="Path 41289" d="M113.118,158.229a1.574,1.574,0,0,1-.3-.34c-.32-.688-.62-1.384-.926-2.078-.021-.048-.035-.1-.059-.17a6.36,6.36,0,0,0,3.616-2,2.047,2.047,0,0,1,.114.193c.351.786.7,1.573,1.05,2.358.087.193.136.407-.05.528a.688.688,0,0,1-.507.075c-.566-.163-1.121-.367-1.7-.563-.225.518-.432,1.032-.674,1.528a2.49,2.49,0,0,1-.39.468Z" transform="translate(-117.225 -163.969)" fill="#fff"/>
      <path id="Path_41290" data-name="Path 41290" d="M67.615,53.343a1.212,1.212,0,0,0-.5-1.691,1.264,1.264,0,0,0,1.431-1.059,1.21,1.21,0,0,0,1.469.993c-.265.314-.558.525-.647.8a2.547,2.547,0,0,0,.059.925,2.631,2.631,0,0,0-.869-.332A2.98,2.98,0,0,0,67.615,53.343Z" transform="translate(-75.004 -66.66)" fill="#fff"/>
    </g>
  </g>
</svg>
