<svg xmlns="http://www.w3.org/2000/svg" width="23" height="23" viewBox="0 0 23 23">
  <g id="my-order" transform="translate(-15 -116)">
    <circle id="Ellipse_78" data-name="Ellipse 78" cx="11.5" cy="11.5" r="11.5" transform="translate(15 116)" fill="#894df8"/>
    <g id="Group_40994" data-name="Group 40994" transform="translate(-241.005 -19)">
      <path id="Path_41300" data-name="Path 41300" d="M267.928,139h.513a.411.411,0,0,0,.092.04,2.483,2.483,0,0,1,2.165,2.382c.011.146.063.19.2.187.307-.007.615-.005.923,0a.905.905,0,0,1,.97.852c.052.475.074.953.112,1.429.079.995.163,1.99.24,2.985.078,1.012.18,2.024.218,3.037a2.086,2.086,0,0,1-2.115,2.212q-3.062.029-6.125,0a2.086,2.086,0,0,1-2.115-2.212c.038-1.005.137-2.008.215-3.012.113-1.446.237-2.891.344-4.337a.935.935,0,0,1,.98-.954c.3,0,.6-.008.9,0,.162.006.221-.042.229-.213a2.48,2.48,0,0,1,1.694-2.245C267.549,139.088,267.74,139.05,267.928,139Zm2.042,3.343c-1.167,0-2.285,0-3.4,0-.143,0-.171.067-.169.189,0,.248.005.5,0,.743s-.136.4-.364.4-.362-.137-.368-.394-.008-.5,0-.743c0-.142-.043-.2-.19-.195-.29.008-.581.006-.871,0-.176,0-.265.061-.277.25-.027.443-.068.884-.1,1.327q-.121,1.479-.241,2.959c-.079.978-.14,1.957-.238,2.933a1.387,1.387,0,0,0,1.357,1.55q3.088,0,6.176,0a1.36,1.36,0,0,0,1.354-1.4c-.033-.681-.1-1.361-.156-2.041q-.145-1.824-.292-3.648c-.046-.561-.09-1.122-.149-1.682-.009-.082-.093-.22-.148-.223-.387-.02-.776-.01-1.179-.01,0,.321,0,.6,0,.883,0,.3-.129.443-.376.438s-.354-.145-.357-.431S269.97,142.665,269.97,142.343Zm-3.566-.754h3.56a1.753,1.753,0,0,0-.848-1.557,1.69,1.69,0,0,0-1.865,0A1.753,1.753,0,0,0,266.4,141.588Z" fill="#fff"/>
      <path id="Path_41302" data-name="Path 41302" d="M329.411,265.924c.588-.589,1.138-1.147,1.7-1.7.253-.25.589-.188.655.129a.5.5,0,0,1-.116.384c-.634.656-1.282,1.3-1.932,1.94a.383.383,0,0,1-.587-.011q-.441-.427-.868-.869a.36.36,0,0,1-.022-.562.372.372,0,0,1,.545.033C328.989,265.474,329.184,265.688,329.411,265.924Z" transform="translate(-61.768 -118.658)" fill="#fff"/>
    </g>
  </g>
</svg>
