<svg xmlns="http://www.w3.org/2000/svg" width="138" height="138" viewBox="0 0 138 138">
  <g id="otp-icon" transform="translate(-119 -95)">
    <circle id="Ellipse_1" data-name="Ellipse 1" cx="69" cy="69" r="69" transform="translate(119 95)" fill="#894df8"/>
    <g id="Group_6" data-name="Group 6" transform="translate(463.734 162.864)">
      <path id="Path_15" data-name="Path 15" d="M-300.006,43.123h62.081l3.556-10.118V1.668l-23.963,11.9-15.591,5.591L-300.006,6.32Z" transform="translate(-2.32 -5.184)" fill="#ff914d"/>
      <path id="Path_16" data-name="Path 16" d="M-276.576,41.313c-10.6,0-21.208.024-31.811-.013-6.859-.024-9.76-2.965-9.773-9.868-.024-12.637.129-25.276-.072-37.911-.079-4.987,1.729-8.477,6.29-10.295,3.246-1.292,4.861-3.226,4.272-6.849a27.8,27.8,0,0,1-.038-4.787c.086-6.626,3.895-10.557,10.554-10.592q20.916-.109,41.833,0c6.354.034,10.236,3.941,10.538,10.286a10.992,10.992,0,0,1,0,2.177c-.778,5.082.358,8.834,5.839,10.8,3.409,1.222,4.694,4.514,4.693,8.152-.005,13.218.058,26.436-.023,39.654-.037,6.068-3.37,9.205-9.618,9.234C-254.788,41.352-265.682,41.316-276.576,41.313Zm.352-74.936c-6.675,0-13.349-.033-20.024.012-4.42.031-5.979,1.571-6.009,5.995-.052,7.69-.172,15.386.114,23.066a6.363,6.363,0,0,0,2.788,4.517c6.687,3.743,13.531,7.223,20.458,10.5a6.82,6.82,0,0,0,5.18.012c7.181-3.425,14.248-7.1,21.233-10.912A4.971,4.971,0,0,0-250.271-4c.2-7.831.16-15.669.079-23.5-.046-4.547-1.742-6.092-6.445-6.114C-263.166-33.648-269.695-33.623-276.224-33.623ZM-239.849-.436c-8.3,4.2-15.748,7.935-23.171,11.723-14.632,7.466-11.768,7.593-26.627-.04-3.817-1.961-7.646-3.9-11.564-5.876-3.711-1.873-7.5-3.779-11.44-5.771,0,11.457-.037,22.156.024,32.852.017,2.917,2.027,3.4,4.5,3.395,21.228-.025,42.456-.041,63.683.07,3.466.018,4.683-1.444,4.615-4.7-.094-4.506-.022-9.014-.021-13.522C-239.848,11.952-239.849,6.2-239.849-.436Zm-67.968-11.373-1.137-.854c-1.225,1.481-3.414,2.974-3.393,4.438.018,1.34,2.422,2.648,4.53,4.709Zm63.179,6.741,1.043.759c1.2-1.346,3.461-2.793,3.344-4.012-.147-1.53-2.239-2.874-3.492-4.3l-.9.719Z" fill="aqua"/>
      <g id="Group_5" data-name="Group 5" transform="translate(-293.787 -22.949)">
        <g id="Group_4" data-name="Group 4" transform="translate(0)">
          <path id="Path_17" data-name="Path 17" d="M-277.777-14.052c0,4.244-2.574,6.817-6.357,6.817-3.84,0-6.087-2.9-6.087-6.586,0-3.878,2.478-6.778,6.3-6.778C-279.947-20.6-277.777-17.623-277.777-14.052Zm-9.352.173c0,2.534,1.19,4.321,3.149,4.321,1.978,0,3.111-1.882,3.111-4.4,0-2.323-1.114-4.32-3.13-4.32C-285.977-18.276-287.129-16.394-287.129-13.879Z" transform="translate(290.221 20.6)" fill="#fff"/>
          <path id="Path_18" data-name="Path 18" d="M-272.028-17.9H-275.5v-2.458h9.947V-17.9h-3.534V-7.416h-2.938Z" transform="translate(288.348 20.569)" fill="#fff"/>
          <path id="Path_19" data-name="Path 19" d="M-262.325-20.2a23.967,23.967,0,0,1,3.956-.269,6.212,6.212,0,0,1,3.956,1.037,3.785,3.785,0,0,1,1.382,3,4.133,4.133,0,0,1-1.191,3.072,6,6,0,0,1-4.2,1.363,7.369,7.369,0,0,1-1-.058V-7.43h-2.9Zm2.9,5.876a4.473,4.473,0,0,0,.979.077c1.555,0,2.515-.787,2.515-2.112,0-1.191-.826-1.9-2.285-1.9a5,5,0,0,0-1.21.114Z" transform="translate(286.67 20.583)" fill="#fff"/>
        </g>
      </g>
    </g>
  </g>
</svg>
