<svg xmlns="http://www.w3.org/2000/svg" width="64.617" height="68.766" viewBox="0 0 64.617 68.766">
  <g id="Group_7" data-name="Group 7" transform="translate(384.801 186.603)">
    <path id="Path_20" data-name="Path 20" d="M-370.254-135.03c-3.287,0-6.409,0-9.531,0a9.555,9.555,0,0,1-1.6-.078,3.743,3.743,0,0,1-3.378-3.859q-.063-9.93,0-19.861a3.719,3.719,0,0,1,4.034-3.875c2.952-.023,5.9-.006,8.857-.007h1.621v-1.57c0-5.413.113-10.829-.038-16.237-.109-3.892,2.547-6.106,6.041-6.083,8.141.054,16.283-.01,24.424.06a3.623,3.623,0,0,1,2.324.979q8.3,8.49,16.459,17.125a3.185,3.185,0,0,1,.821,1.981q.069,21.472.023,42.943c-.007,3.54-2.157,5.655-5.72,5.661q-19.325.033-38.649,0c-3.533-.007-5.662-2.185-5.68-5.7C-370.27-127.307-370.254-131.06-370.254-135.03Zm2.482,0c0,3.78,0,7.394,0,11.007,0,2.642.888,3.543,3.529,3.544q19.056.008,38.112,0c2.571,0,3.435-.89,3.435-3.48q0-20,0-39.99v-1.517h-1.793c-4.876,0-9.752.008-14.627-.005-1.762,0-2.1-.366-2.1-2.134q0-6.978,0-13.956v-2.317c-.474-.031-.82-.073-1.165-.073q-11-.006-22.008,0c-2.448,0-3.376.958-3.379,3.424q-.008,8.186,0,16.372c0,.433.043.867.074,1.44h1.533q10.266,0,20.532,0c2.658,0,4.294,1.414,4.328,4.041q.123,9.728,0,19.458c-.03,2.648-1.714,4.126-4.4,4.178-.581.011-1.163,0-1.744,0Zm4.706-2.632q8.523,0,17.045,0c1.888,0,2.12-.236,2.121-2.064q0-9.193,0-18.387c0-1.718-.387-2.112-2.132-2.113q-17.044-.008-34.09,0c-1.752,0-2.165.443-2.166,2.254q0,9.059,0,18.118c0,1.872.307,2.188,2.177,2.191Q-371.589-137.653-363.066-137.661Zm24.5-45.375v14.89h14.324Z" transform="translate(0 0)" fill="#894df8"/>
    <path id="Path_21" data-name="Path 21" d="M-316.382-55.37v-11.3a43.572,43.572,0,0,1,6.261.424c2.036.421,2.713,2.262,3.035,4.159.573,3.37-1.051,6.406-3.736,6.678C-312.623-55.222-314.459-55.37-316.382-55.37Zm2.18-1.887c2.1.422,3.691.116,4.31-.794.733-1.079.794-4.507.008-5.565-1.126-1.514-2.744-1.065-4.318-1.081Z" transform="translate(-50.045 -87.727)" fill="#894df8"/>
    <path id="Path_22" data-name="Path 22" d="M-353.422-59.627v4.254h-2.059V-66.628a64.6,64.6,0,0,1,6.477.449c1.482.243,2.158,2.025,1.855,3.962a3.086,3.086,0,0,1-2.977,2.58C-351.143-59.587-352.165-59.627-353.422-59.627Zm.147-5.124v3.475a9.236,9.236,0,0,0,2.494-.265c.585-.235,1.35-.905,1.373-1.412a2.131,2.131,0,0,0-1.191-1.581A9.126,9.126,0,0,0-353.275-64.751Z" transform="translate(-21.446 -87.755)" fill="#894df8"/>
    <path id="Path_23" data-name="Path 23" d="M-273.372-65.949h7.428v1.687h-5.215v2.846h4.442c.033.613.057,1.081.09,1.7h-4.579V-54.9h-2.166Z" transform="translate(-81.505 -88.252)" fill="#894df8"/>
  </g>
</svg>
